<?xml version="1.0" encoding="utf-8"?>
<!-- Generator: Adobe Illustrator 23.0.3, SVG Export Plug-In . SVG Version: 6.00 Build 0)  -->
<svg version="1.1" id="Livello_1" xmlns="http://www.w3.org/2000/svg" xmlns:xlink="http://www.w3.org/1999/xlink" x="0px" y="0px"
	 viewBox="0 0 841.89 595.28" style="enable-background:new 0 0 841.89 595.28;" xml:space="preserve">
<style type="text/css">
	.st0{fill:none;stroke:#FFFFFF;stroke-width:3;stroke-miterlimit:10;}
	.st1{fill:#2FAC66;stroke:#FFFFFF;stroke-width:3;stroke-miterlimit:10;}
	.st2{fill:#36A9E1;stroke:#FFFFFF;stroke-width:3;stroke-miterlimit:10;}
	.st3{fill:#F9B233;stroke:#FFFFFF;stroke-width:3;stroke-miterlimit:10;}
	.st4{fill:none;stroke:#3C3C3B;stroke-linecap:round;stroke-miterlimit:10;}
	.st5{fill:#3C3C3B;}
</style>
<g>
	<path class="st0" d="M256.15,248.48l-17.48,30.27c2.32,2.34,4.06,5.26,4.95,8.54h35.05c0.94-3.18,2.67-6.03,4.98-8.29l-17.62-30.52
		c-1.58,0.42-3.23,0.67-4.94,0.67S257.73,248.9,256.15,248.48z"/>
	<path class="st1" d="M297.09,287.28h-18.42h-35.05c-0.88-3.28-2.62-6.2-4.95-8.54l-9.26,16.04c-0.93,1.6-2.61,2.5-4.33,2.5
		c-0.85,0-1.71-0.22-2.5-0.67c-2.39-1.38-3.21-4.44-1.83-6.83l9.28-16.07c-1.58-0.42-3.24-0.65-4.95-0.65
		c-10.6,0-19.22,8.62-19.22,19.22c0,10.6,8.62,19.22,19.22,19.22c8.87,0,16.33-6.04,18.54-14.22h34.83h18.64c2.76,0,5-2.24,5-5
		S299.85,287.28,297.09,287.28z"/>
	<path class="st2" d="M297.09,273.48c-1.63,0-3.21,0.23-4.73,0.61l-17.67-30.61l-9.27-16.06c-1.38-2.39-4.44-3.21-6.83-1.83
		c-2.39,1.38-3.21,4.44-1.83,6.83l9.27,16.05l17.62,30.52c-2.31,2.27-4.04,5.11-4.98,8.29h18.42c2.76,0,5,2.24,5,5s-2.24,5-5,5
		h-18.64c2.06,8.39,9.63,14.64,18.64,14.64c10.6,0,19.22-8.62,19.22-19.22S307.69,273.48,297.09,273.48z"/>
	<path class="st3" d="M258.59,225.59c2.39-1.38,5.45-0.56,6.83,1.83l9.27,16.06c3.47-3.48,5.62-8.27,5.62-13.56
		c0-10.6-8.62-19.22-19.22-19.22c-10.6,0-19.22,8.62-19.22,19.22c0,5.29,2.15,10.08,5.62,13.56l-17.45,30.23l-9.28,16.07
		c-1.38,2.39-0.56,5.45,1.83,6.83c0.79,0.46,1.65,0.67,2.5,0.67c1.73,0,3.41-0.9,4.33-2.5l9.26-16.04l17.48-30.27
		c1.58,0.42,3.23,0.67,4.94,0.67s3.36-0.25,4.94-0.67l-9.27-16.05C255.38,230.03,256.2,226.97,258.59,225.59z"/>
</g>
<g>
	<path class="st0" d="M487.02,290.52l-17.48,30.27c2.32,2.34,4.06,5.26,4.95,8.54h35.05c0.94-3.18,2.67-6.03,4.98-8.29l-17.62-30.52
		c-1.58,0.42-3.23,0.67-4.94,0.67S488.6,290.94,487.02,290.52z"/>
	<path class="st1" d="M527.96,329.33h-18.42h-35.05c-0.88-3.28-2.62-6.2-4.95-8.54l-9.26,16.04c-0.93,1.6-2.61,2.5-4.33,2.5
		c-0.85,0-1.71-0.22-2.5-0.67c-2.39-1.38-3.21-4.44-1.83-6.83l9.28-16.07c-1.58-0.42-3.24-0.65-4.95-0.65
		c-10.6,0-19.22,8.62-19.22,19.22c0,10.6,8.62,19.22,19.22,19.22c8.87,0,16.33-6.04,18.54-14.22h34.83h18.64c2.76,0,5-2.24,5-5
		S530.72,329.33,527.96,329.33z"/>
	<path class="st2" d="M527.96,315.53c-1.63,0-3.21,0.23-4.73,0.61l-17.67-30.61l-9.27-16.06c-1.38-2.39-4.44-3.21-6.83-1.83
		c-2.39,1.38-3.21,4.44-1.83,6.83l9.27,16.05l17.62,30.52c-2.31,2.27-4.04,5.11-4.98,8.29h18.42c2.76,0,5,2.24,5,5s-2.24,5-5,5
		h-18.64c2.06,8.39,9.63,14.64,18.64,14.64c10.6,0,19.22-8.62,19.22-19.22S538.56,315.53,527.96,315.53z"/>
	<path class="st3" d="M489.46,267.64c2.39-1.38,5.45-0.56,6.83,1.83l9.27,16.06c3.47-3.48,5.62-8.27,5.62-13.56
		c0-10.6-8.62-19.22-19.22-19.22s-19.22,8.62-19.22,19.22c0,5.29,2.15,10.08,5.62,13.56l-17.45,30.23l-9.28,16.07
		c-1.38,2.39-0.56,5.45,1.83,6.83c0.79,0.46,1.65,0.67,2.5,0.67c1.73,0,3.41-0.9,4.33-2.5l9.26-16.04l17.48-30.27
		c1.58,0.42,3.23,0.67,4.94,0.67s3.36-0.25,4.94-0.67l-9.27-16.05C486.25,272.08,487.07,269.02,489.46,267.64z"/>
</g>
<line class="st4" x1="569.92" y1="270.66" x2="569.92" y2="336.06"/>
<g>
	<path class="st5" d="M241.1,374.35c0.83,0,1.53,0.29,2.12,0.88c0.59,0.59,0.88,1.3,0.88,2.12c0,0.83-0.29,1.54-0.86,2.14
		c-3.88,3.38-8.45,5.07-13.71,5.07c-5.81,0-10.77-2.05-14.88-6.16c-4.11-4.11-6.16-9.07-6.16-14.88s2.05-10.77,6.16-14.88
		c4.11-4.11,9.07-6.16,14.88-6.16s10.77,2.05,14.88,6.16c4.11,4.11,6.16,9.07,6.16,14.88c0,0.83-0.29,1.53-0.88,2.12
		c-0.59,0.59-1.3,0.88-2.12,0.88h-32.79c0.55,2.88,1.93,5.42,4.13,7.63c2.93,2.93,6.47,4.39,10.63,4.39c3.76,0,6.99-1.19,9.69-3.57
		C239.78,374.56,240.4,374.35,241.1,374.35z M244.3,360.53c-0.55-2.88-1.93-5.42-4.13-7.63c-2.93-2.93-6.47-4.4-10.63-4.4
		c-4.16,0-7.7,1.46-10.63,4.4c-2.2,2.2-3.58,4.75-4.13,7.63H244.3z"/>
	<path class="st5" d="M256.58,327.47c0-0.83,0.29-1.53,0.88-2.12c0.59-0.59,1.3-0.88,2.12-0.88c0.83,0,1.53,0.29,2.12,0.88
		c0.59,0.59,0.88,1.3,0.88,2.12v51.09h3.01c0.83,0,1.53,0.29,2.12,0.88c0.59,0.59,0.88,1.3,0.88,2.12c0,0.83-0.29,1.53-0.88,2.12
		c-0.59,0.59-1.3,0.88-2.12,0.88h-6.01c-0.83,0-1.53-0.29-2.12-0.88c-0.59-0.59-0.88-1.3-0.88-2.12V327.47z"/>
	<path class="st5" d="M296.29,383.74c-0.55,0.55-1.26,0.83-2.14,0.83c-0.88,0-1.59-0.29-2.14-0.86c-0.18-0.15-0.34-0.39-0.49-0.71
		l-16.68-36.33c-0.15-0.35-0.23-0.74-0.23-1.16c0-0.83,0.29-1.53,0.88-2.12c0.59-0.59,1.3-0.88,2.12-0.88
		c0.83,0,1.54,0.29,2.14,0.86c0.2,0.2,0.39,0.46,0.56,0.79l13.82,30.2l13.82-30.2c0.18-0.33,0.38-0.59,0.6-0.79
		c0.58-0.58,1.28-0.86,2.1-0.86c0.83,0,1.53,0.29,2.12,0.88c0.59,0.59,0.88,1.3,0.88,2.12c0,0.43-0.08,0.81-0.23,1.16l-16.68,36.33
		C296.63,383.32,296.46,383.57,296.29,383.74z"/>
	<path class="st5" d="M210.86,403.86c-0.62-0.23-1.05-0.47-1.29-0.72c-0.48-0.47-0.72-1.05-0.72-1.72s0.25-1.26,0.75-1.76
		c0.98-1,2.25-1.49,3.82-1.49c1.7,0,3.16,0.68,4.37,2.04c0.11,0.13,0.16,0.29,0.15,0.48c0,0.22-0.08,0.42-0.24,0.57
		s-0.35,0.24-0.57,0.24s-0.4-0.07-0.54-0.21c-0.14-0.14-0.23-0.24-0.29-0.3c-0.79-0.79-1.75-1.19-2.88-1.19
		c-1.13,0-2.02,0.35-2.69,1.06c-0.16,0.2-0.24,0.43-0.24,0.7c0.02,0.32,0.19,0.54,0.5,0.65l5,1.66c0.62,0.23,1.05,0.47,1.29,0.72
		c0.48,0.47,0.72,1.05,0.72,1.72s-0.25,1.26-0.75,1.76c-0.98,1-2.25,1.49-3.82,1.49c-1.71,0-3.16-0.68-4.37-2.04
		c-0.1-0.14-0.15-0.3-0.15-0.48c0-0.22,0.08-0.42,0.24-0.57s0.35-0.24,0.57-0.24c0.22,0,0.4,0.07,0.54,0.21
		c0.14,0.14,0.23,0.24,0.29,0.3c0.79,0.79,1.75,1.19,2.88,1.19c1.12,0,2.02-0.35,2.69-1.06c0.16-0.2,0.24-0.43,0.24-0.7
		c-0.02-0.32-0.19-0.54-0.5-0.65L210.86,403.86z"/>
	<path class="st5" d="M231,403.86c0,1.57-0.56,2.91-1.67,4.02s-2.45,1.67-4.02,1.67c-1.57,0-2.91-0.56-4.02-1.67
		c-1.11-1.11-1.67-2.45-1.67-4.02s0.56-2.91,1.67-4.03c1.11-1.11,2.45-1.67,4.02-1.67c1.57,0,2.91,0.56,4.02,1.67
		C230.45,400.94,231,402.28,231,403.86z M225.31,399.79c-1.13,0-2.08,0.4-2.88,1.19c-0.79,0.79-1.19,1.75-1.19,2.88
		s0.4,2.08,1.19,2.88c0.79,0.79,1.75,1.19,2.88,1.19c1.12,0,2.08-0.4,2.88-1.19c0.79-0.79,1.19-1.75,1.19-2.88s-0.4-2.08-1.19-2.88
		C227.4,400.19,226.44,399.79,225.31,399.79z"/>
	<path class="st5" d="M232.63,394.1c0-0.22,0.08-0.42,0.24-0.57s0.35-0.24,0.57-0.24s0.42,0.08,0.57,0.24s0.24,0.35,0.24,0.57v13.82
		h0.81c0.22,0,0.42,0.08,0.57,0.24s0.24,0.35,0.24,0.57s-0.08,0.42-0.24,0.57c-0.16,0.16-0.35,0.24-0.57,0.24h-1.63
		c-0.22,0-0.42-0.08-0.57-0.24c-0.16-0.16-0.24-0.35-0.24-0.57V394.1z"/>
	<path class="st5" d="M248.08,408.73c0,0.22-0.08,0.42-0.24,0.57c-0.16,0.16-0.35,0.24-0.57,0.24c-0.22,0-0.42-0.08-0.57-0.24
		c-0.16-0.16-0.24-0.35-0.24-0.57v-0.66c-1.02,0.98-2.24,1.47-3.66,1.47c-1.46,0-2.7-0.52-3.74-1.55s-1.55-2.28-1.55-3.74v-5.29
		c0-0.22,0.08-0.42,0.24-0.57s0.35-0.24,0.57-0.24s0.42,0.08,0.57,0.24s0.24,0.35,0.24,0.57v5.29c0,1.01,0.36,1.87,1.07,2.59
		c0.71,0.71,1.58,1.07,2.59,1.07c1.01,0,1.87-0.36,2.59-1.07s1.07-1.58,1.07-2.59v-5.29c0-0.22,0.08-0.42,0.24-0.57
		s0.35-0.24,0.57-0.24c0.22,0,0.42,0.08,0.57,0.24c0.16,0.16,0.24,0.35,0.24,0.57V408.73z"/>
	<path class="st5" d="M258.55,406.76c0.22,0,0.42,0.08,0.57,0.24s0.24,0.35,0.24,0.57s-0.08,0.42-0.25,0.6
		c-1.05,0.92-2.29,1.37-3.71,1.37c-1.57,0-2.91-0.56-4.02-1.67c-1.11-1.11-1.67-2.45-1.67-4.02s0.56-2.91,1.67-4.03
		c1.11-1.11,2.45-1.67,4.02-1.67c1.42,0,2.66,0.46,3.71,1.37c0.19,0.17,0.28,0.38,0.28,0.63c0,0.22-0.08,0.42-0.24,0.57
		c-0.16,0.16-0.35,0.24-0.57,0.24c-0.2,0-0.37-0.06-0.52-0.18c-0.76-0.67-1.65-1.01-2.66-1.01c-1.13,0-2.08,0.4-2.88,1.19
		c-0.79,0.79-1.19,1.75-1.19,2.88s0.4,2.08,1.19,2.88c0.79,0.79,1.75,1.19,2.88,1.19c1.02,0,1.9-0.33,2.65-1
		C258.19,406.82,258.36,406.76,258.55,406.76z"/>
	<path class="st5" d="M263.73,395.72c0,0.28-0.1,0.52-0.3,0.72c-0.2,0.2-0.44,0.3-0.72,0.3c-0.28,0-0.52-0.1-0.72-0.3
		c-0.2-0.2-0.3-0.44-0.3-0.72c0-0.28,0.1-0.52,0.3-0.72c0.2-0.2,0.44-0.3,0.72-0.3c0.28,0,0.52,0.1,0.72,0.3
		C263.63,395.21,263.73,395.45,263.73,395.72z M261.9,398.98c0-0.22,0.08-0.42,0.24-0.57c0.16-0.16,0.35-0.24,0.57-0.24
		s0.41,0.08,0.57,0.24c0.16,0.16,0.24,0.35,0.24,0.57v9.76c0,0.22-0.08,0.42-0.24,0.57c-0.16,0.16-0.35,0.24-0.57,0.24
		s-0.42-0.08-0.57-0.24c-0.16-0.16-0.24-0.35-0.24-0.57V398.98z"/>
	<path class="st5" d="M277.35,403.86c0,1.57-0.56,2.91-1.67,4.02s-2.45,1.67-4.02,1.67c-1.57,0-2.91-0.56-4.02-1.67
		c-1.11-1.11-1.67-2.45-1.67-4.02s0.56-2.91,1.67-4.03c1.11-1.11,2.45-1.67,4.02-1.67c1.57,0,2.91,0.56,4.02,1.67
		C276.79,400.94,277.35,402.28,277.35,403.86z M271.66,399.79c-1.13,0-2.08,0.4-2.88,1.19c-0.79,0.79-1.19,1.75-1.19,2.88
		s0.4,2.08,1.19,2.88c0.79,0.79,1.75,1.19,2.88,1.19c1.12,0,2.08-0.4,2.88-1.19c0.79-0.79,1.19-1.75,1.19-2.88s-0.4-2.08-1.19-2.88
		C273.74,400.19,272.78,399.79,271.66,399.79z"/>
	<path class="st5" d="M278.98,398.98c0-0.22,0.08-0.42,0.24-0.57s0.35-0.24,0.57-0.24s0.42,0.08,0.57,0.24s0.24,0.35,0.24,0.57v0.66
		c1.02-0.98,2.24-1.47,3.66-1.47c1.46,0,2.7,0.52,3.73,1.55s1.55,2.28,1.55,3.74v5.28c0,0.22-0.08,0.42-0.24,0.57
		c-0.16,0.16-0.35,0.24-0.57,0.24c-0.22,0-0.42-0.08-0.57-0.24c-0.16-0.16-0.24-0.35-0.24-0.57v-5.28c0-1.01-0.36-1.87-1.07-2.59
		s-1.58-1.07-2.59-1.07c-1.01,0-1.87,0.36-2.59,1.07c-0.72,0.71-1.07,1.58-1.07,2.59v5.28c0,0.22-0.08,0.42-0.24,0.57
		c-0.16,0.16-0.35,0.24-0.57,0.24s-0.42-0.08-0.57-0.24c-0.16-0.16-0.24-0.35-0.24-0.57V398.98z"/>
	<path class="st5" d="M300,406.78c0.22,0,0.41,0.08,0.57,0.24c0.16,0.16,0.24,0.35,0.24,0.57s-0.08,0.42-0.23,0.58
		c-1.05,0.92-2.29,1.37-3.71,1.37c-1.57,0-2.91-0.56-4.02-1.67c-1.11-1.11-1.67-2.45-1.67-4.02s0.56-2.91,1.67-4.03
		c1.11-1.11,2.45-1.67,4.02-1.67c1.57,0,2.91,0.56,4.02,1.67c1.11,1.11,1.67,2.45,1.67,4.03c0,0.22-0.08,0.42-0.24,0.57
		s-0.35,0.24-0.57,0.24h-8.87c0.15,0.78,0.52,1.47,1.12,2.06c0.79,0.79,1.75,1.19,2.88,1.19c1.02,0,1.89-0.32,2.62-0.97
		C299.64,406.84,299.81,406.78,300,406.78z M300.86,403.04c-0.15-0.78-0.52-1.47-1.12-2.06c-0.79-0.79-1.75-1.19-2.88-1.19
		c-1.13,0-2.08,0.4-2.88,1.19c-0.6,0.6-0.97,1.28-1.12,2.06H300.86z"/>
	<path class="st5" d="M306.19,403.86c-0.62-0.23-1.05-0.47-1.29-0.72c-0.48-0.47-0.72-1.05-0.72-1.72s0.25-1.26,0.75-1.76
		c0.98-1,2.25-1.49,3.82-1.49c1.7,0,3.16,0.68,4.37,2.04c0.11,0.13,0.16,0.29,0.15,0.48c0,0.22-0.08,0.42-0.24,0.57
		s-0.35,0.24-0.57,0.24s-0.4-0.07-0.54-0.21c-0.14-0.14-0.23-0.24-0.29-0.3c-0.79-0.79-1.75-1.19-2.88-1.19
		c-1.13,0-2.02,0.35-2.69,1.06c-0.16,0.2-0.24,0.43-0.24,0.7c0.02,0.32,0.19,0.54,0.5,0.65l5,1.66c0.62,0.23,1.05,0.47,1.29,0.72
		c0.48,0.47,0.72,1.05,0.72,1.72s-0.25,1.26-0.75,1.76c-0.98,1-2.25,1.49-3.82,1.49c-1.71,0-3.16-0.68-4.37-2.04
		c-0.1-0.14-0.15-0.3-0.15-0.48c0-0.22,0.08-0.42,0.24-0.57s0.35-0.24,0.57-0.24c0.22,0,0.4,0.07,0.54,0.21
		c0.14,0.14,0.23,0.24,0.29,0.3c0.79,0.79,1.75,1.19,2.88,1.19c1.12,0,2.02-0.35,2.69-1.06c0.16-0.2,0.24-0.43,0.24-0.7
		c-0.02-0.32-0.19-0.54-0.5-0.65L306.19,403.86z"/>
</g>
<g>
	<path class="st5" d="M619.26,306.99c0.66,0,1.22,0.23,1.69,0.7s0.7,1.03,0.7,1.69s-0.23,1.22-0.69,1.7
		c-3.09,2.69-6.72,4.03-10.9,4.03c-4.62,0-8.56-1.63-11.83-4.9c-3.27-3.27-4.9-7.21-4.9-11.83c0-4.62,1.63-8.56,4.9-11.83
		c3.27-3.27,7.21-4.9,11.83-4.9c4.62,0,8.56,1.63,11.83,4.9c3.27,3.27,4.9,7.21,4.9,11.83c0,0.66-0.23,1.22-0.7,1.69
		s-1.03,0.7-1.69,0.7h-26.08c0.44,2.29,1.53,4.31,3.29,6.06c2.33,2.33,5.15,3.5,8.45,3.5c2.99,0,5.56-0.95,7.71-2.84
		C618.21,307.15,618.7,306.99,619.26,306.99z M621.8,295.99c-0.44-2.29-1.53-4.31-3.29-6.06c-2.33-2.33-5.15-3.49-8.45-3.49
		s-6.12,1.16-8.45,3.49c-1.75,1.75-2.85,3.77-3.29,6.06H621.8z"/>
	<path class="st5" d="M631.57,269.71c0-0.66,0.23-1.22,0.7-1.69c0.47-0.47,1.03-0.7,1.69-0.7s1.22,0.23,1.69,0.7
		c0.47,0.47,0.7,1.03,0.7,1.69v40.63h2.39c0.66,0,1.22,0.23,1.69,0.7c0.47,0.47,0.7,1.03,0.7,1.69s-0.23,1.22-0.7,1.69
		c-0.47,0.47-1.03,0.7-1.69,0.7h-4.78c-0.66,0-1.22-0.23-1.69-0.7s-0.7-1.03-0.7-1.69V269.71z"/>
	<path class="st5" d="M663.14,314.45c-0.44,0.44-1.01,0.66-1.7,0.66c-0.7,0-1.26-0.23-1.7-0.69c-0.14-0.12-0.27-0.31-0.39-0.57
		l-13.26-28.89c-0.12-0.28-0.18-0.59-0.18-0.93c0-0.66,0.23-1.22,0.7-1.69c0.47-0.47,1.03-0.7,1.69-0.7s1.22,0.23,1.7,0.69
		c0.16,0.16,0.31,0.37,0.45,0.63l10.99,24.02l10.99-24.02c0.14-0.26,0.3-0.47,0.48-0.63c0.46-0.46,1.02-0.69,1.67-0.69
		c0.66,0,1.22,0.23,1.69,0.7c0.47,0.47,0.7,1.03,0.7,1.69c0,0.34-0.06,0.65-0.18,0.93l-13.26,28.89
		C663.41,314.11,663.28,314.31,663.14,314.45z"/>
	<path class="st5" d="M595.21,330.45c-0.49-0.18-0.83-0.38-1.03-0.57c-0.38-0.38-0.57-0.83-0.57-1.37c0-0.53,0.2-1,0.6-1.4
		c0.78-0.79,1.79-1.19,3.04-1.19c1.35,0,2.51,0.54,3.48,1.63c0.09,0.1,0.13,0.23,0.12,0.38c0,0.18-0.06,0.33-0.19,0.46
		c-0.13,0.13-0.28,0.19-0.46,0.19s-0.32-0.06-0.43-0.17c-0.11-0.11-0.19-0.19-0.23-0.24c-0.63-0.63-1.39-0.95-2.29-0.95
		c-0.89,0-1.61,0.28-2.14,0.84c-0.13,0.16-0.19,0.34-0.19,0.56c0.02,0.25,0.15,0.43,0.4,0.52l3.98,1.32
		c0.49,0.18,0.83,0.37,1.03,0.57c0.38,0.38,0.57,0.83,0.57,1.37s-0.2,1-0.6,1.4c-0.78,0.79-1.79,1.19-3.04,1.19
		c-1.36,0-2.52-0.54-3.47-1.62c-0.08-0.11-0.12-0.24-0.12-0.38c0-0.18,0.06-0.33,0.19-0.46c0.13-0.13,0.28-0.19,0.46-0.19
		s0.32,0.06,0.43,0.17c0.11,0.11,0.19,0.19,0.23,0.24c0.63,0.63,1.39,0.95,2.29,0.95c0.89,0,1.61-0.28,2.14-0.84
		c0.13-0.16,0.19-0.34,0.19-0.56c-0.02-0.25-0.15-0.42-0.4-0.52L595.21,330.45z"/>
	<path class="st5" d="M611.23,330.45c0,1.25-0.44,2.32-1.33,3.2c-0.88,0.88-1.95,1.33-3.2,1.33s-2.32-0.44-3.2-1.33
		s-1.33-1.95-1.33-3.2s0.44-2.32,1.33-3.2s1.95-1.33,3.2-1.33s2.32,0.44,3.2,1.33C610.79,328.13,611.23,329.2,611.23,330.45z
		 M606.71,327.21c-0.89,0-1.66,0.31-2.29,0.95c-0.63,0.63-0.95,1.39-0.95,2.29s0.32,1.66,0.95,2.29c0.63,0.63,1.39,0.95,2.29,0.95
		s1.66-0.32,2.29-0.95c0.63-0.63,0.95-1.39,0.95-2.29s-0.32-1.66-0.95-2.29C608.36,327.53,607.6,327.21,606.71,327.21z"/>
	<path class="st5" d="M612.52,322.69c0-0.18,0.06-0.33,0.19-0.46c0.13-0.13,0.28-0.19,0.46-0.19s0.33,0.06,0.46,0.19
		c0.13,0.13,0.19,0.28,0.19,0.46v10.99h0.65c0.18,0,0.33,0.06,0.46,0.19c0.13,0.13,0.19,0.28,0.19,0.46s-0.06,0.33-0.19,0.46
		c-0.13,0.13-0.28,0.19-0.46,0.19h-1.29c-0.18,0-0.33-0.06-0.46-0.19c-0.13-0.13-0.19-0.28-0.19-0.46V322.69z"/>
	<path class="st5" d="M624.81,334.33c0,0.18-0.06,0.33-0.19,0.46c-0.13,0.13-0.28,0.19-0.46,0.19c-0.18,0-0.33-0.06-0.46-0.19
		c-0.13-0.13-0.19-0.28-0.19-0.46v-0.53c-0.81,0.78-1.78,1.17-2.91,1.17c-1.16,0-2.15-0.41-2.97-1.23
		c-0.82-0.82-1.23-1.81-1.23-2.97v-4.2c0-0.18,0.06-0.33,0.19-0.46c0.13-0.13,0.28-0.19,0.46-0.19s0.33,0.06,0.46,0.19
		c0.13,0.13,0.19,0.28,0.19,0.46v4.2c0,0.8,0.28,1.49,0.85,2.06s1.25,0.85,2.06,0.85s1.49-0.28,2.06-0.85s0.85-1.25,0.85-2.06v-4.2
		c0-0.18,0.06-0.33,0.19-0.46s0.28-0.19,0.46-0.19c0.18,0,0.33,0.06,0.46,0.19s0.19,0.28,0.19,0.46V334.33z"/>
	<path class="st5" d="M633.13,332.76c0.18,0,0.33,0.06,0.46,0.19c0.13,0.13,0.19,0.28,0.19,0.46s-0.07,0.34-0.2,0.48
		c-0.83,0.73-1.82,1.09-2.95,1.09c-1.25,0-2.32-0.44-3.2-1.33s-1.33-1.95-1.33-3.2s0.44-2.32,1.33-3.2s1.95-1.33,3.2-1.33
		c1.13,0,2.12,0.36,2.95,1.09c0.15,0.13,0.23,0.3,0.23,0.5c0,0.18-0.06,0.33-0.19,0.46c-0.13,0.13-0.28,0.19-0.46,0.19
		c-0.16,0-0.29-0.05-0.41-0.15c-0.6-0.53-1.31-0.8-2.12-0.8c-0.89,0-1.66,0.31-2.29,0.95c-0.63,0.63-0.95,1.39-0.95,2.29
		s0.32,1.66,0.95,2.29c0.63,0.63,1.39,0.95,2.29,0.95c0.81,0,1.51-0.26,2.11-0.79C632.85,332.8,632.98,332.76,633.13,332.76z"/>
	<path class="st5" d="M637.25,323.98c0,0.22-0.08,0.41-0.24,0.57c-0.16,0.16-0.35,0.24-0.57,0.24s-0.41-0.08-0.57-0.24
		c-0.16-0.16-0.24-0.35-0.24-0.57c0-0.22,0.08-0.41,0.24-0.57c0.16-0.16,0.35-0.24,0.57-0.24s0.41,0.08,0.57,0.24
		C637.17,323.57,637.25,323.76,637.25,323.98z M635.8,326.57c0-0.18,0.06-0.33,0.19-0.46c0.13-0.13,0.28-0.19,0.46-0.19
		s0.33,0.06,0.46,0.19c0.13,0.13,0.19,0.28,0.19,0.46v7.76c0,0.18-0.06,0.33-0.19,0.46c-0.13,0.13-0.28,0.19-0.46,0.19
		s-0.33-0.06-0.46-0.19c-0.13-0.13-0.19-0.28-0.19-0.46V326.57z"/>
	<path class="st5" d="M648.08,330.45c0,1.25-0.44,2.32-1.33,3.2c-0.88,0.88-1.95,1.33-3.2,1.33s-2.32-0.44-3.2-1.33
		s-1.33-1.95-1.33-3.2s0.44-2.32,1.33-3.2s1.95-1.33,3.2-1.33s2.32,0.44,3.2,1.33C647.64,328.13,648.08,329.2,648.08,330.45z
		 M643.56,327.21c-0.89,0-1.66,0.31-2.29,0.95c-0.63,0.63-0.95,1.39-0.95,2.29s0.32,1.66,0.95,2.29c0.63,0.63,1.39,0.95,2.29,0.95
		s1.66-0.32,2.29-0.95c0.63-0.63,0.95-1.39,0.95-2.29s-0.32-1.66-0.95-2.29C645.21,327.53,644.45,327.21,643.56,327.21z"/>
	<path class="st5" d="M649.38,326.57c0-0.18,0.06-0.33,0.19-0.46c0.13-0.13,0.28-0.19,0.46-0.19s0.33,0.06,0.46,0.19
		c0.13,0.13,0.19,0.28,0.19,0.46v0.53c0.81-0.78,1.78-1.17,2.91-1.17c1.16,0,2.15,0.41,2.97,1.23c0.82,0.82,1.23,1.81,1.23,2.97v4.2
		c0,0.18-0.06,0.33-0.19,0.46c-0.13,0.13-0.28,0.19-0.46,0.19c-0.18,0-0.33-0.06-0.46-0.19c-0.13-0.13-0.19-0.28-0.19-0.46v-4.2
		c0-0.8-0.28-1.49-0.85-2.06s-1.25-0.85-2.06-0.85s-1.49,0.28-2.06,0.85s-0.85,1.25-0.85,2.06v4.2c0,0.18-0.06,0.33-0.19,0.46
		c-0.13,0.13-0.28,0.19-0.46,0.19s-0.33-0.06-0.46-0.19c-0.13-0.13-0.19-0.28-0.19-0.46V326.57z"/>
	<path class="st5" d="M666.09,332.77c0.18,0,0.33,0.06,0.46,0.19c0.13,0.13,0.19,0.28,0.19,0.46s-0.06,0.33-0.19,0.46
		c-0.83,0.73-1.82,1.09-2.95,1.09c-1.25,0-2.32-0.44-3.2-1.33s-1.33-1.95-1.33-3.2s0.44-2.32,1.33-3.2s1.95-1.33,3.2-1.33
		s2.32,0.44,3.2,1.33c0.88,0.88,1.33,1.95,1.33,3.2c0,0.18-0.06,0.33-0.19,0.46c-0.13,0.13-0.28,0.19-0.46,0.19h-7.06
		c0.12,0.62,0.42,1.17,0.89,1.64c0.63,0.63,1.39,0.95,2.29,0.95c0.81,0,1.5-0.26,2.08-0.77
		C665.8,332.82,665.94,332.77,666.09,332.77z M666.78,329.8c-0.12-0.62-0.42-1.17-0.89-1.64c-0.63-0.63-1.39-0.95-2.29-0.95
		s-1.66,0.31-2.29,0.95c-0.47,0.47-0.77,1.02-0.89,1.64H666.78z"/>
	<path class="st5" d="M671.02,330.45c-0.49-0.18-0.83-0.38-1.03-0.57c-0.38-0.38-0.57-0.83-0.57-1.37c0-0.53,0.2-1,0.6-1.4
		c0.78-0.79,1.79-1.19,3.04-1.19c1.35,0,2.51,0.54,3.47,1.63c0.09,0.1,0.13,0.23,0.12,0.38c0,0.18-0.06,0.33-0.19,0.46
		c-0.13,0.13-0.28,0.19-0.46,0.19c-0.18,0-0.32-0.06-0.43-0.17s-0.19-0.19-0.23-0.24c-0.63-0.63-1.39-0.95-2.29-0.95
		s-1.61,0.28-2.14,0.84c-0.13,0.16-0.19,0.34-0.19,0.56c0.02,0.25,0.15,0.43,0.4,0.52l3.98,1.32c0.49,0.18,0.83,0.37,1.03,0.57
		c0.38,0.38,0.57,0.83,0.57,1.37s-0.2,1-0.6,1.4c-0.78,0.79-1.79,1.19-3.04,1.19c-1.36,0-2.52-0.54-3.48-1.62
		c-0.08-0.11-0.12-0.24-0.12-0.38c0-0.18,0.06-0.33,0.19-0.46c0.13-0.13,0.28-0.19,0.46-0.19s0.32,0.06,0.43,0.17
		c0.11,0.11,0.19,0.19,0.23,0.24c0.63,0.63,1.39,0.95,2.29,0.95s1.61-0.28,2.14-0.84c0.13-0.16,0.19-0.34,0.19-0.56
		c-0.02-0.25-0.15-0.42-0.4-0.52L671.02,330.45z"/>
</g>
</svg>
